<svg id="Layer_1" xmlns="http://www.w3.org/2000/svg" xmlns:xlink="http://www.w3.org/1999/xlink" viewBox="0 0 47 64"><style>.st0{clip-path:url(#SVGID_2_);fill:#FFFFFF;} .st1{fill:#FFFFFF;}</style><defs><path id="SVGID_1_" d="M0 0h47v64H0z"/></defs><clipPath id="SVGID_2_"><use xlink:href="#SVGID_1_" overflow="visible"/></clipPath><path class="st0" d="M9.6 6.6h28.1V10H9.6z"/><path class="st0" d="M45.1 32.7c-1.3-1.6-3.2-2.8-5.6-3.5v-24c0-2.8-2.3-5.2-5.2-5.2H13c-2.8 0-5.2 2.3-5.2 5.2v20.6H6.4c-2.8 0-5.2 2.3-5.2 5.2v.2c0 1 .3 1.9.8 2.7-1.2 1-2 2.5-2 4.2v.2c0 1.7.8 3.2 2.1 4.1-.5.8-.8 1.7-.8 2.7v.2c0 2.8 2.3 5.2 5.2 5.2h1.4c.1 2 1.3 3.7 3 4.5.2 1.8.7 5.2 2.5 7.8.3.5.9.7 1.4.7.3 0 .7-.1 1-.3.8-.5 1-1.6.4-2.4-1.2-1.7-1.6-3.9-1.8-5.4h14.2c0 .1.1.1.1.2.5.8 1.6 1 2.4.4.8-.5 1-1.6.4-2.4-2-3-1.5-6.2 1.6-9.8.5-.5 2.1-2 1.9-4.1-.1-1.6-1.2-3-3.2-4-.1 0-.1-.1-.2-.1s-2-.8-1.7-2.7c.2-1.2 2.5-1.4 4.1-1.3 4 .3 6.8 1.3 8.2 3.1 1 1.2 1.3 2.9 1 4.9-.1.4-.1.9-.2 1.4-1 6.4-2.2 14.3-8.6 19.7-.7.6-.8 1.7-.2 2.4.3.4.8.6 1.3.6.4 0 .8-.1 1.1-.4 7.3-6.2 8.7-15.2 9.7-21.8.1-.5.1-.9.2-1.4.7-2.8.2-5.4-1.4-7.4zM5.2 40c-.9 0-1.7-.8-1.7-1.7v-.2c0-.9.8-1.7 1.7-1.7h2.6V40H5.2zm-.5-9c0-.9.8-1.7 1.7-1.7h1.3V33H6.4c-.9 0-1.7-.8-1.7-1.7V31zm3 16.1H6.4c-.9 0-1.7-.8-1.7-1.7v-.2c0-.9.8-1.7 1.7-1.7h1.3v3.6zm5.3 5c-.9 0-1.7-.8-1.7-1.7V49H27c-.1 1.1-.1 2.2.1 3.1H13zm13.7-19.6c-.5 3.6 2.1 5.7 3.7 6.4.9.5 1.3 1 1.3 1.2 0 .4-.4 1-.8 1.2-.1.1-.2.1-.2.2-1.2 1.4-2.1 2.7-2.7 3.9H11.3V5.2c0-.9.8-1.7 1.7-1.7h21.3c.9 0 1.7.8 1.7 1.7v23.3c-.5-.1-1.1-.1-1.6-.2-4.3-.3-7.3 1.3-7.7 4.2zm0 0"/><path class="st1" d="M22.3 14.3h-4.1c-.5 0-.9.4-.9.9v4.1c0 .5.4.9.9.9h4.1c.5 0 .9-.4.9-.9v-4.1c0-.5-.4-.9-.9-.9zm0 0M21.2 24.5H19v-2.1c0-.5-.4-.9-.9-.9s-.9.4-.9.9v2.9c0 .5.4.9.9.9h3c.5 0 .9-.4.9-.9.1-.4-.3-.8-.8-.8zm0 0M28.7 14.3h-4.1c-.5 0-.9.4-.9.9v4.1c0 .5.4.9.9.9h4.1c.5 0 .9-.4.9-.9v-4.1c0-.5-.4-.9-.9-.9zm-.8 4.1h-2.4V16h2.4v2.4zm0 0M27.9 21.6h-2.5c-.5 0-.9.4-.9.9v2.4c0 .5.4.9.9.9h2.5c.5 0 .9-.4.9-.9v-2.4c0-.5-.4-.9-.9-.9zm0 0"/></svg>