<?xml version="1.0" encoding="utf-8"?>
<svg version="1.1" id="Layer_1" xmlns="http://www.w3.org/2000/svg" xmlns:xlink="http://www.w3.org/1999/xlink" x="0px" y="0px"
   viewBox="0 0 64.2 64" style="enable-background:new 0 0 64.2 64;" xml:space="preserve">
<style type="text/css">
  .st0{fill:#FFFFFF;}
</style>
<g>
  <path class="st0" d="M53.5,0H10.7C4.8,0,0,4.8,0,10.7v28.1c0,5.9,4.8,10.7,10.7,10.7h9.9V64l17.9-14.4h15c5.9,0,10.7-4.8,10.7-10.7
    V10.7C64.2,4.8,59.4,0,53.5,0L53.5,0z M57.5,38.8c0,2.2-1.8,4-4,4H36.1l-1.8,1.5l-7,5.6v-7.1H10.7c-2.2,0-4-1.8-4-4V10.7
    c0-2.2,1.8-4,4-4h42.8c2.2,0,4,1.8,4,4V38.8z M57.5,38.8"/>
  <path class="st0" d="M22.3,24.8c0,2.2-1.7,3.9-3.9,3.9c-2.2,0-3.9-1.7-3.9-3.9c0-2.2,1.7-3.9,3.9-3.9
    C20.5,20.9,22.3,22.6,22.3,24.8L22.3,24.8z M22.3,24.8"/>
  <path class="st0" d="M36,24.8c0,2.2-1.7,3.9-3.9,3.9c-2.2,0-3.9-1.7-3.9-3.9c0-2.2,1.7-3.9,3.9-3.9C34.3,20.9,36,22.6,36,24.8
    L36,24.8z M36,24.8"/>
  <path class="st0" d="M49.8,24.8c0,2.2-1.7,3.9-3.9,3.9c-2.2,0-3.9-1.7-3.9-3.9c0-2.2,1.7-3.9,3.9-3.9C48,20.9,49.8,22.6,49.8,24.8
    L49.8,24.8z M49.8,24.8"/>
</g>
</svg>
