<?xml version="1.0" encoding="utf-8"?>
<!-- Generator: Adobe Illustrator 19.2.0, SVG Export Plug-In . SVG Version: 6.00 Build 0)  -->
<svg version="1.1" id="Layer_1" xmlns="http://www.w3.org/2000/svg" xmlns:xlink="http://www.w3.org/1999/xlink" x="0px" y="0px"
   viewBox="0 0 207.4 64" style="enable-background:new 0 0 207.4 64;" xml:space="preserve">
<style type="text/css">
  .st0{fill:#FFFFFF;}
</style>
<path class="st0" d="M24.3,3.7c-1.4,1-1.7,3-0.7,4.4c1,1.4,3,1.7,4.4,0.7c1-0.8,3-1.1,5.1-1.1c2.2,0,4.3,0.4,5.3,1.1
  c1.4,1,3.3,0.7,4.4-0.7c1-1.4,0.7-3.3-0.7-4.4c-2-1.5-5.6-2.3-9-2.3C29.8,1.3,26.5,2.1,24.3,3.7 M43,16.8c-1.4-1-3.3-0.7-4.4,0.7
  c-1,1.4-0.7,3.3,0.7,4.4c2,1.4,3.1,3.6,3.5,5.8c0.3,2.2-0.2,4.6-1.6,6.5c-0.8,1.1-1.9,2-3,2.6c-1.2,0.6-2.5,1-3.9,1
  c-1.7,0-3.1,1.5-3,3.2c0,1.7,1.5,3.1,3.2,3c2.3-0.1,4.5-0.6,6.6-1.7c2-1,3.7-2.5,5.1-4.4c2.5-3.3,3.4-7.4,2.8-11.2
  C48.4,22.8,46.3,19.2,43,16.8z M19.7,41.2c-1.1-1.3-3.1-1.4-4.4-0.3C14,42,13.9,43.9,15,45.2c0.6,0.7,1.3,1.4,1.9,2
  c0.7,0.6,1.4,1.2,2.1,1.8c5.6,4.1,12.3,5.6,18.6,4.7c6.4-0.9,12.3-4.3,16.5-9.9c4.1-5.6,5.6-12.3,4.7-18.6
  c-0.9-6.4-4.3-12.3-9.9-16.5c-1.4-1-3.3-0.7-4.4,0.7c-1,1.4-0.7,3.3,0.7,4.4c4.2,3.1,6.7,7.6,7.4,12.4c0.7,4.8-0.4,9.8-3.5,14
  c-3.1,4.2-7.6,6.7-12.4,7.4c-4.8,0.7-9.8-0.4-14-3.5c-0.6-0.4-1.1-0.9-1.6-1.3C20.7,42.2,20.2,41.7,19.7,41.2z M54.9,0.6
  c-1.4-1-3.3-0.7-4.4,0.7c-1,1.4-0.7,3.3,0.7,4.4c6.4,4.7,10.3,11.6,11.4,19c1.1,7.3-0.6,15-5.4,21.5c-4.7,6.4-11.6,10.3-19,11.4
  c-7.3,1.1-15-0.6-21.5-5.4c-2.7-2-4.9-4.3-6.7-6.9c-1.8-2.7-3.2-5.7-4-8.8c-0.4-1.7-2.2-2.6-3.8-2.2c-1.7,0.4-2.6,2.2-2.2,3.8
  c1,3.8,2.6,7.4,4.9,10.7c2.2,3.2,4.9,6.1,8.1,8.4c7.8,5.8,17.2,7.8,26.1,6.5c8.9-1.3,17.3-6,23.1-13.8c5.8-7.8,7.8-17.2,6.5-26.1
  C67.5,14.8,62.7,6.4,54.9,0.6z"/>
<path class="st0" d="M196.9,19.3v7.9h-3.1V6.8h3.1v8.4c0.4-0.9,1.1-1.6,2-2.1c0.9-0.5,1.8-0.8,2.9-0.8c1.6,0,3,0.5,4,1.5
  c1,1,1.5,2.5,1.5,4.4v9h-3.1v-8c0-2.7-1.1-4-3.4-4c-1.1,0-2,0.4-2.8,1.1C197.3,16.9,196.9,17.9,196.9,19.3 M188,15v7.4
  c0,0.7,0.2,1.3,0.5,1.7c0.4,0.4,0.9,0.6,1.5,0.6c0.7,0,1.3-0.3,1.9-1l1.3,2.2c-1.1,1-2.3,1.5-3.6,1.5c-1.3,0-2.4-0.5-3.4-1.4
  c-0.9-0.9-1.4-2.1-1.4-3.7V15h-1.8v-2.5h1.8V8h3.1v4.6h3.8V15H188z M178.8,9.7c-0.4-0.4-0.6-0.8-0.6-1.4c0-0.5,0.2-1,0.6-1.4
  c0.4-0.4,0.8-0.6,1.4-0.6c0.5,0,1,0.2,1.4,0.6c0.4,0.4,0.6,0.8,0.6,1.4c0,0.5-0.2,1-0.6,1.4c-0.4,0.4-0.8,0.6-1.4,0.6
  C179.6,10.2,179.2,10,178.8,9.7z M181.7,27.2h-3.1V12.6h3.1V27.2z M162.2,27.2h-3.5l-5.1-14.6h3.2l3.6,11l3.6-11h3.2l3.6,11l3.6-11
  h3.2l-5.1,14.6h-3.5l-3.5-10L162.2,27.2z M140,18.8h8.4c0-1.2-0.4-2.2-1.2-2.8c-0.8-0.7-1.7-1-2.8-1c-1.1,0-2.1,0.3-3,1
  C140.5,16.7,140,17.6,140,18.8z M151.5,21.2H140c0.1,1.1,0.6,1.9,1.5,2.6c0.9,0.7,1.9,1,3.1,1c1.8,0,3.2-0.6,4.2-1.7l1.8,1.9
  c-1.6,1.6-3.6,2.4-6.2,2.4c-2.1,0-3.8-0.7-5.2-2c-1.4-1.4-2.2-3.2-2.2-5.5c0-2.3,0.7-4.1,2.2-5.5c1.5-1.4,3.2-2,5.2-2
  s3.7,0.6,5.1,1.8c1.4,1.2,2.1,2.9,2.1,5V21.2z M123.4,20c0,1.4,0.4,2.5,1.3,3.4c0.9,0.9,2,1.3,3.2,1.3c1.2,0,2.2-0.4,3.1-1.3
  c0.8-0.9,1.3-2,1.3-3.4c0-1.4-0.4-2.6-1.3-3.5c-0.8-0.9-1.9-1.4-3.1-1.4c-1.2,0-2.3,0.5-3.2,1.4C123.9,17.4,123.4,18.6,123.4,20z
   M127.3,27.4c-1.9,0-3.5-0.7-4.8-2.1c-1.4-1.4-2.1-3.2-2.1-5.5c0-2.3,0.7-4.1,2.1-5.4c1.4-1.4,3.1-2,5-2c2,0,3.5,0.8,4.7,2.5v-8h3.1
  v20.4h-3.1V25C131.1,26.6,129.4,27.4,127.3,27.4z M115.8,21.8v-1.2h-3.5c-2.2,0-3.3,0.7-3.3,2.1c0,0.7,0.3,1.3,0.8,1.6
  c0.5,0.4,1.3,0.6,2.3,0.6c1,0,1.8-0.3,2.6-0.8C115.4,23.4,115.8,22.7,115.8,21.8z M118.9,27.2h-2.8v-2c-1.2,1.4-2.8,2.2-4.9,2.2
  c-1.5,0-2.8-0.4-3.8-1.3c-1-0.9-1.5-2-1.5-3.4c0-1.4,0.5-2.5,1.6-3.2c1.1-0.7,2.5-1.1,4.3-1.1h4v-0.5c0-1.9-1.1-2.9-3.2-2.9
  c-1.4,0-2.8,0.5-4.2,1.5l-1.4-1.9c1.8-1.4,3.8-2.1,6-2.1c1.7,0,3.1,0.4,4.2,1.3c1.1,0.9,1.6,2.2,1.6,4.1V27.2z M84.1,19.3v7.9H81
  V12.6h3.1v2.7c0.4-0.9,1.1-1.6,2-2.1c0.9-0.5,1.8-0.8,2.9-0.8c2.3,0,3.9,1,4.7,2.9c1.4-1.9,3.3-2.9,5.4-2.9c1.6,0,3,0.5,4,1.5
  c1,1,1.5,2.5,1.5,4.4v9h-3.1v-8c0-2.7-1.1-4-3.4-4c-1,0-2,0.3-2.7,1c-0.8,0.7-1.2,1.6-1.2,2.9v8.1h-3.1v-8c0-1.4-0.2-2.4-0.7-3.1
  c-0.5-0.7-1.3-1-2.3-1c-1.1,0-2,0.4-2.8,1.1C84.5,16.9,84.1,17.9,84.1,19.3z"/>
<path class="st0" d="M191.6,48.7c-2.3,2.2-5,3.3-8.1,3.3c-3.1,0-5.7-1-7.7-2.9c-2-1.9-3-4.5-3-7.7c0-3.2,1-5.8,3.1-7.7
  c2.1-1.9,4.5-2.9,7.3-2.9s5.2,0.9,7.2,2.6c2,1.7,3,4,3,7v3h-14.9c0.2,1.1,0.8,2,1.8,2.7c1,0.7,2.1,1.1,3.3,1.1c2,0,3.7-0.7,4.9-2
  L191.6,48.7z M138.6,30.8c2.4,0,4.5,1,6.4,3c1.9,2,2.8,4.5,2.8,7.5c0,3-0.9,5.5-2.8,7.6c-1.9,2-4,3-6.5,3c-2.5,0-4.5-1-6-3v8.7h-5.7
  V31.2h5.7v2.3C134.1,31.7,136.2,30.8,138.6,30.8z M132.3,41.4c0,1.7,0.5,3,1.4,4.1c0.9,1.1,2,1.6,3.4,1.6c1.3,0,2.5-0.5,3.5-1.6
  c1-1.1,1.5-2.4,1.5-4.1c0-1.6-0.5-3-1.4-4.1c-1-1.1-2.1-1.7-3.5-1.7c-1.3,0-2.5,0.6-3.4,1.7C132.7,38.4,132.3,39.8,132.3,41.4z
   M122.5,48.7c-2.3,2.2-5,3.3-8.1,3.3c-3.1,0-5.7-1-7.7-2.9c-2-1.9-3-4.5-3-7.7c0-3.2,1-5.8,3.1-7.7c2.1-1.9,4.5-2.9,7.3-2.9
  s5.2,0.9,7.2,2.6c2,1.7,2.9,4,2.9,7v3h-14.9c0.2,1.1,0.8,2,1.8,2.7c1,0.7,2.1,1.1,3.4,1.1c2,0,3.7-0.7,4.9-2L122.5,48.7z
   M118.4,39.4c-0.1-1.2-0.6-2.2-1.4-2.8c-0.8-0.7-1.7-1-2.9-1c-1.1,0-2.2,0.3-3.1,1c-0.9,0.7-1.5,1.6-1.6,2.8H118.4z M92.9,30.8
  c2.4,0,4.5,1,6.4,3c1.9,2,2.8,4.5,2.8,7.5c0,3-0.9,5.5-2.8,7.6c-1.9,2-4,3-6.5,3c-2.5,0-4.5-1-6-3v8.7H81V31.2h5.7v2.3
  C88.5,31.7,90.6,30.8,92.9,30.8z M86.7,41.4c0,1.7,0.5,3,1.4,4.1c0.9,1.1,2,1.6,3.4,1.6c1.3,0,2.5-0.5,3.5-1.6
  c1-1.1,1.5-2.4,1.5-4.1c0-1.6-0.5-3-1.4-4.1c-1-1.1-2.1-1.7-3.5-1.7c-1.3,0-2.5,0.6-3.4,1.7C87.1,38.4,86.7,39.8,86.7,41.4z
   M206.3,36.2c-1.7,0-3,0.6-3.8,1.8c-0.8,1.2-1.3,2.8-1.3,4.8v8.9h-5.7V31.2h5.7v2.7c0.7-0.8,1.7-1.5,2.8-2.1
  c1.1-0.6,2.2-0.9,3.4-0.9l0,5.4H206.3z M161.7,30.8c2.4,0,4.5,1,6.4,3c1.9,2,2.8,4.5,2.8,7.5c0,3-0.9,5.5-2.8,7.6c-1.9,2-4,3-6.5,3
  c-2.5,0-4.5-1-6-3v8.7h-5.7V31.2h5.7v2.3C157.2,31.7,159.3,30.8,161.7,30.8z M155.4,41.4c0,1.7,0.5,3,1.4,4.1c0.9,1.1,2,1.6,3.4,1.6
  c1.3,0,2.5-0.5,3.5-1.6c1-1.1,1.5-2.4,1.5-4.1c0-1.6-0.5-3-1.4-4.1c-1-1.1-2.1-1.7-3.5-1.7c-1.3,0-2.5,0.6-3.4,1.7
  C155.9,38.4,155.4,39.8,155.4,41.4z M187.5,39.4c-0.1-1.2-0.6-2.2-1.4-2.8c-0.8-0.7-1.7-1-2.9-1c-1.1,0-2.2,0.3-3.1,1
  c-0.9,0.7-1.5,1.6-1.6,2.8H187.5z"/>
</svg>
